<svg viewBox="0 0 512 512" xmlns="http://www.w3.org/2000/svg" xmlns:xlink="http://www.w3.org/1999/xlink" fill="#E5E5E6" overflow="hidden"><path d="M444.17 32 70.28 32C49.85 32 32 46.7 32 66.89L32 441.61C32 461.91 49.85 480 70.28 480L444.06 480C464.6 480 480 461.79 480 441.61L480 66.89C480.12 46.7 464.6 32 444.17 32ZM170.87 405.43 106.69 405.43 106.69 205.88 170.87 205.88ZM141 175.54 140.54 175.54C120 175.54 106.7 160.25 106.7 141.11 106.7 121.62 120.35 106.69 141.35 106.69 162.35 106.69 175.2 121.51 175.66 141.11 175.65 160.25 162.35 175.54 141 175.54ZM405.43 405.43 341.25 405.43 341.25 296.32C341.25 270.18 331.91 252.32 308.69 252.32 290.95 252.32 280.45 264.32 275.78 276.01 274.03 280.21 273.56 285.93 273.56 291.77L273.56 405.43 209.38 405.43 209.38 205.88 273.56 205.88 273.56 233.65C282.9 220.35 297.49 201.21 331.44 201.21 373.57 201.21 405.44 228.98 405.44 288.85Z" fill="#000000"/></svg>