<svg viewBox="0 0 512 512" xmlns="http://www.w3.org/2000/svg" xmlns:xlink="http://www.w3.org/1999/xlink" overflow="hidden"><rect x="0" y="0" rx="15%" width="512" height="512" fill="#4285F4"/><path d="M213 111 106 205 175 205C180 250 216 269 253 272 246 290 249 299 260 311 217 312 157 337 157 378 161 423 220 432 249 432 287 433 330 413 339 378 343 343 329 324 308 307 285 289 280 279 287 267 302 250 322 240 326 216 328 199 324 188 320 173L365 135 364 151C361 153 359 157 359 160L359 263C361 276 381 274 382 263L382 160C382 157 380 153 377 152L377 127 393 111ZM271 252C210 262 184 165 233 153 289 142 316 239 271 252ZM266 325C326 338 327 388 276 403 232 412 194 399 195 373 195 348 230 325 266 325Z" fill="#FFFFFF"/></svg>